<svg xmlns="http://www.w3.org/2000/svg" viewBox="0 0 500 500"><g id="freepik--astronaut-helmet--inject-63"><path d="M418.9,359.68v38.39c0,24.71-110.24,41.19-168.91,41.19S81.1,422.78,81.1,398.07V359.68c0-9.37,11.89-32.56,168.89-32.56S418.9,350.31,418.9,359.68Z" style="fill:#FF81AE"></path><path d="M417.34,359.53c-1.3,19.57-62.33,30-78.92,33.05a575.81,575.81,0,0,1-88.42,8,575.69,575.69,0,0,1-88.42-8c-21.78-4-44-8.13-64.08-17.75-6.12-3.28-14.27-7.59-14.84-15.31,1.12,12.16,25.93,18.92,36,21.88,28.46,7.71,57.89,11.39,87.2,14.11,44.09,4.18,88.48,1.41,132.19-5.21,16.59-2.75,77.48-11.92,79.29-30.78Z" style="opacity:0.2"></path><path d="M388,400c0,3.91-2.68,7.07-6,7.07s-6-3.16-6-7.07,2.69-7.08,6-7.08S388,396,388,400Z" style="opacity:0.2"></path><path d="M385.51,400c0,3.57-2.13,6.47-4.76,6.47S376,403.52,376,400s2.14-6.47,4.77-6.47S385.51,396.38,385.51,400Z" style="fill:#263238"></path><ellipse cx="132.41" cy="406.42" rx="7.15" ry="7.07" style="opacity:0.2"></ellipse><ellipse cx="133.88" cy="406.42" rx="5.67" ry="6.47" style="fill:#263238"></ellipse><path d="M408.67,392.87c0,3.91-2.68,7.08-6,7.08s-6-3.17-6-7.08,2.69-7.07,6-7.07S408.67,389,408.67,392.87Z" style="opacity:0.2"></path><path d="M406.19,392.87c0,3.58-2.13,6.47-4.76,6.47s-4.76-2.89-4.76-6.47,2.13-6.46,4.76-6.46S406.19,389.3,406.19,392.87Z" style="fill:#263238"></path><path d="M118.36,396.34v12.42s-25-6.18-37.26-16.24V379.26C88.35,385.36,103.35,393.39,118.36,396.34Z" style="opacity:0.2"></path><path d="M118.36,396.34v9.85c-7.38-1.75-26.47-6.93-35.7-15.54V380.51C90.36,386.4,104.36,393.58,118.36,396.34Z" style="fill:#263238"></path><path d="M129.94,416.46C140.69,417.79,145,409.17,141,400a12.27,12.27,0,0,1,3,6.2,11.8,11.8,0,0,1,.13,2.72,9.62,9.62,0,0,1-14.23,7.59Z" style="opacity:0.2"></path><path d="M96.48,346.76c-3,2.65-6.7,5.79-7,10-.18,9.75,23.17,15.63,31,18,16.6,4.61,33.72,7.75,50.53,11.57-20.31-1.67-65-7.89-79.63-21.75-7.1-7.11-1.93-13.59,5.13-17.79Z" style="fill:#fff"></path><path d="M413.35,209.23H86.66c0-87.23,88-148.49,163.34-148.49S413.35,122,413.35,209.23Z" style="fill:#FF81AE"></path><g style="opacity:0.5"><path d="M139.32,127.41c27.54-17.34,61.08-23.87,93.32-22.61-32.06,2.94-63.94,9-93.32,22.61Z" style="fill:#fff"></path><path d="M100.33,160c6.3-12.59,19.22-23,32-28.51-1.34,1.26-2.75,2.37-4.12,3.54-9.66,8-19.16,16-27.89,25Z" style="fill:#fff"></path></g><g style="opacity:0.5"><path d="M190.87,92.66c0,1.65-2.24,3-5,3s-5-1.33-5-3,2.25-3,5-3S190.87,91,190.87,92.66Z" style="fill:#fff"></path><path d="M220.58,83.12c.31,4.19-5.16,8-12.22,8.53S195.33,89.2,195,85s5.16-8,12.22-8.53S220.27,78.93,220.58,83.12Z" style="fill:#fff"></path></g><path d="M413.35,209.23H86.66c8-80.41,114.45-100.85,163.34-100.85S405.29,128.82,413.35,209.23Z" style="opacity:0.1"></path><path d="M396.8,209.23V353.29c-39.16,24.84-81.2,37.26-146.8,37.26s-107.64-12.42-146.81-37.26V209.23Z" style="fill:#FF81AE"></path><path d="M396.8,263v90.31c-39.17,24.84-81.2,37.26-146.81,37.26s-107.63-12.42-146.8-37.26V293.82c.2-.23.32-.35.32-.35s9,47.89,14.85,54C129.94,359.53,186,385.8,244.9,385.8c83.1,0,120.85-24.51,137.09-37.4C394.51,338.45,396.53,286.26,396.8,263Z" style="opacity:0.1"></path><path d="M378.16,169.53c-24-44.07-96.36-52.67-128.17-52.67s-104.16,8.6-128.17,52.67-17.91,144.71,9,167.28S221.26,365.47,250,365.47s92.35-6.09,119.22-28.66S402.16,213.58,378.16,169.53ZM250,354.13c-118.6,0-138.84-54.54-138.84-97.45s14.1-73.06,35.82-88.23c25.61-17.88,67-3,103-3s77.41-14.89,103,3c21.72,15.17,35.82,45.34,35.82,88.23S368.6,354.13,250,354.13Z" style="fill:#FF81AE"></path><path d="M378.16,169.53c-24-44.07-96.36-52.67-128.17-52.67s-104.17,8.6-128.16,52.67-17.92,144.71,9,167.28S221.26,365.48,250,365.48s92.35-6.1,119.22-28.67S402.17,213.59,378.16,169.53ZM250,354.13c-118.6,0-138.84-54.54-138.84-97.44s14.1-73.07,35.82-88.24c25.62-17.88,67-3,103-3s77.41-14.89,103,3c21.72,15.17,35.82,45.34,35.82,88.24S368.6,354.13,250,354.13Z" style="opacity:0.30000000000000004"></path><path d="M369.21,336.81c-18.37,15.42-53.89,23.16-83.72,26.5,71.59-14.43,48.34-22.12,47.49-22.4,46-18.81,55.87-54.34,55.87-84.23,0-42.89-14.1-73.06-35.82-88.23-25.62-17.88-67-3-103-3-4.47,0-9-.22-13.63-.6,28.05.69,80.05-8.61,80.05-19.14s-27.22-23.49-54.06-28.48c35.35,2,94.55,13.26,115.8,52.29C402.16,213.58,396.08,314.24,369.21,336.81Z" style="opacity:0.1"></path><g style="opacity:0.5"><path d="M145.6,158.94c.21,1.25-1.33,2.56-3.44,2.93s-4-.37-4.22-1.62,1.32-2.57,3.44-2.93S145.38,157.68,145.6,158.94Z" style="fill:#fff"></path><path d="M167,147.77c.78,3.16-2.89,6.79-8.21,8.11s-10.27-.17-11.06-3.33,2.9-6.79,8.22-8.11S166.25,144.61,167,147.77Z" style="fill:#fff"></path></g><path d="M388.85,256.69c0,42.9-20.25,97.44-138.85,97.44s-138.84-54.54-138.84-97.44,14.1-73.07,35.82-88.24c25.62-17.88,67-3,103-3s77.41-14.89,103,3C374.75,183.62,388.85,213.79,388.85,256.69Z" style="fill:#263238"></path><path d="M388.19,269.6c-.07.69-.15,1.39-.24,2.08-2.39,19.13-10.14,39-29.32,54.43-11.66,9.39-27.54,17.14-49,22.09a246.36,246.36,0,0,1-45.22,5.64q-6.94.29-14.39.29-8.59,0-16.5-.38l-.7,0h-.11s0,0,0,0c-.52-.88-1-1.76-1.53-2.66a89.57,89.57,0,0,1-4.76-10.14c-.54-1.37-1-2.75-1.52-4.13-.16-.44-.3-.88-.44-1.32s-.28-.88-.41-1.33c-.27-.89-.53-1.78-.76-2.66-.1-.33-.18-.65-.26-1-.27-1-.51-2-.73-3.06l-.27-1.27a.32.32,0,0,1,0-.14c-.15-.74-.29-1.48-.42-2.23s-.26-1.49-.36-2.25a.45.45,0,0,1,0-.16c-.09-.52-.15-1-.21-1.54s-.13-1.08-.2-1.62c-.18-1.68-.33-3.38-.41-5.06,0-.67-.06-1.35-.08-2l0-1.13c0-.48,0-1,0-1.47,0-.71,0-1.42,0-2.12,0-.51,0-1,.05-1.52,0-.26,0-.51,0-.76.06-1.21.14-2.41.26-3.61l.09-1c.06-.6.14-1.19.21-1.78s.18-1.42.29-2.14c.2-1.42.45-2.84.73-4.26a88.46,88.46,0,0,1,117.94-65.72l2,.77c.4.15.78.32,1.16.49s.89.36,1.33.55l.57.26c.66.29,1.3.59,1.94.9a.65.65,0,0,1,.17.08c.51.24,1,.48,1.51.74l1,.5c.67.35,1.33.71,2,1.07s1.44.8,2.14,1.22c.09,0,.18.1.27.15l2,1.24,2.16,1.41,1,.66c2.1,1.44,4.13,3,6.11,4.62.38.31.75.63,1.12.95s.76.65,1.12,1,.75.65,1.11,1l.15.14a88.33,88.33,0,0,1,17.6,22.51C386.94,267.13,387.58,268.36,388.19,269.6Z" style="fill:#dbdbdb"></path><path d="M226.38,340.92c4-4.16,12.21-11.86,26.14-19.38,16.86-9.11,63.73-21.36,84.83-34.25,29.69-18.11,32.19-35.24,31.32-43.91a88.45,88.45,0,0,0-28.82-17.71c-1.48,9.1-7.53,37.58-57.47,59.86-25.78,11.47-51.68,7.28-60.47,5.86A87.94,87.94,0,0,0,226.38,340.92Z" style="fill:#c7c7c7"></path><path d="M233.26,353.66l.24.09-.7,0c.14,0,.3,0,.45-.06Z" style="fill:#c7c7c7"></path><path d="M388,271.68c-2.39,19.13-10.14,39-29.32,54.43a105.91,105.91,0,0,0-21.94,7.17,202.08,202.08,0,0,0-27.08,14.92,246.36,246.36,0,0,1-45.22,5.64c8-2.26,17.46-6.34,28.32-13.19s23.07-16.45,36.78-29.76C363.34,278,381.22,272.43,388,271.68Z" style="fill:#c7c7c7"></path><path d="M312.91,257.33c1.89,3.45,7.48,4,12.49,1.26s7.54-7.77,5.65-11.22-7.49-4-12.5-1.25S311,253.89,312.91,257.33Z" style="fill:#a6a6a6"></path><path d="M338.42,261.33c1.06,1.94,4.36,2.18,7.37.53s4.58-4.57,3.51-6.51-4.37-2.17-7.37-.52S337.35,259.39,338.42,261.33Z" style="fill:#a6a6a6"></path><polygon points="201.33 327.2 205.53 327.98 206.47 332.4 207.41 327.98 211.6 327.2 207.42 326.18 206.47 322 205.51 326.18 201.33 327.2" style="fill:#fff"></polygon><polygon points="165.24 311.82 167.59 312.26 168.11 314.73 168.64 312.26 170.98 311.82 168.65 311.25 168.11 308.92 167.58 311.25 165.24 311.82" style="fill:#fff"></polygon><polygon points="267.74 191.61 270.08 192.05 270.61 194.52 271.13 192.05 273.48 191.61 271.14 191.04 270.61 188.71 270.07 191.04 267.74 191.61" style="fill:#fff"></polygon><polygon points="374.52 244.27 376.87 244.7 377.39 247.18 377.91 244.7 380.26 244.27 377.92 243.7 377.39 241.36 376.86 243.7 374.52 244.27" style="fill:#fff"></polygon><path d="M312.28,201.94a.68.68,0,0,1,0,1.36A.68.68,0,0,1,312.28,201.94Z" style="fill:#fff"></path><path d="M197.34,193.47a.48.48,0,0,1,0,1A.48.48,0,0,1,197.34,193.47Z" style="fill:#fff"></path><polygon points="242.87 207.43 247.06 208.2 248 212.63 248.94 208.2 253.13 207.43 248.96 206.4 248 202.23 247.04 206.4 242.87 207.43" style="fill:#fff"></polygon><polygon points="348 227.14 352.2 227.91 353.13 232.34 354.07 227.91 358.27 227.13 354.09 226.11 353.13 221.94 352.18 226.11 348 227.14" style="fill:#fff"></polygon><polygon points="133.28 250.47 135.63 250.9 136.15 253.37 136.67 250.9 139.02 250.46 136.68 249.89 136.15 247.56 135.62 249.89 133.28 250.47" style="fill:#fff"></polygon><path d="M161.83,226.77a.68.68,0,0,1,0,1.36A.68.68,0,0,1,161.83,226.77Z" style="fill:#fff"></path><path d="M118.75,226.09a.68.68,0,0,1,0,1.36A.68.68,0,0,1,118.75,226.09Z" style="fill:#fff"></path><path d="M165.9,172.48a.68.68,0,0,1,0,1.36A.68.68,0,0,1,165.9,172.48Z" style="fill:#fff"></path><path d="M349.31,187.4a1.31,1.31,0,0,1,0,2.61A1.31,1.31,0,0,1,349.31,187.4Z" style="fill:#fff"></path><path d="M168.11,298.24a1.31,1.31,0,0,1,0,2.61A1.31,1.31,0,0,1,168.11,298.24Z" style="fill:#fff"></path><polygon points="215.69 170.94 218.03 171.37 218.56 173.84 219.08 171.37 221.43 170.94 219.09 170.37 218.56 168.03 218.02 170.37 215.69 170.94" style="fill:#fff"></polygon><polygon points="215.69 272.18 218.03 272.62 218.56 275.09 219.08 272.62 221.43 272.18 219.09 271.61 218.56 269.28 218.02 271.61 215.69 272.18" style="fill:#fff"></polygon><path d="M147.44,285.72a.68.68,0,0,1,0,1.36A.68.68,0,0,1,147.44,285.72Z" style="fill:#fff"></path><path d="M227.15,231.47a.48.48,0,0,1,0,1A.48.48,0,0,1,227.15,231.47Z" style="fill:#fff"></path><g style="opacity:0.1"><path d="M290.42,161.85A1225.36,1225.36,0,0,1,121,301.31c-7.51-14.52-9.79-30.22-9.79-44.62q0-5.66.32-11a1198.92,1198.92,0,0,0,105.8-82.88c11,1.37,22.09,2.66,32.72,2.66C263.11,165.46,276.92,163.49,290.42,161.85Z" style="fill:#fff"></path><path d="M376.05,306.6c-6.2,9.94-15.13,19.14-27.82,26.75Q362.41,320.1,376.05,306.6Z" style="fill:#fff"></path><path d="M371.63,188A1263.13,1263.13,0,0,1,192.86,348.75,161.31,161.31,0,0,1,171,342.44,1252.2,1252.2,0,0,0,360.61,174.65,74.29,74.29,0,0,1,371.63,188Z" style="fill:#fff"></path><path d="M384,216.75A1281,1281,0,0,1,235.35,353.83h0c-1.61-.07-3.2-.14-4.78-.23A1277.36,1277.36,0,0,0,383.07,213.36C383.42,214.47,383.74,215.6,384,216.75Z" style="fill:#fff"></path><path d="M305.94,160.21A1228.67,1228.67,0,0,1,126.3,310.14c-.6-.85-1.18-1.71-1.72-2.57A1227.08,1227.08,0,0,0,301.39,160.62C302.92,160.46,304.43,160.33,305.94,160.21Z" style="fill:#fff"></path></g><rect x="89.76" y="209.23" width="13.43" height="66.51" style="fill:#FF81AE"></rect><polygon points="93.35 209.23 103.2 209.23 103.2 275.74 99.44 275.74 93.35 209.23" style="opacity:0.1"></polygon><rect x="79.91" y="289.5" width="9.85" height="38.43" style="fill:#FF81AE"></rect><polygon points="82.54 289.5 89.76 289.5 89.76 327.94 87 327.94 82.54 289.5" style="opacity:0.1"></polygon><rect x="78.48" y="209.23" width="11.28" height="66.51" style="fill:#FF81AE"></rect><polygon points="89.76 275.74 86.65 275.74 82.78 209.23 89.76 209.23 89.76 275.74" style="opacity:0.1"></polygon><rect x="89.76" y="275.73" width="13.43" height="65.97" style="fill:#37474f"></rect><polygon points="103.2 341.71 99.49 341.71 94.88 275.74 103.2 275.74 103.2 341.71" style="opacity:0.1"></polygon><path d="M78.15,235h.33a0,0,0,0,1,0,0v33.49a0,0,0,0,1,0,0h-.33a4.32,4.32,0,0,1-4.32-4.32V239.31A4.32,4.32,0,0,1,78.15,235Z" style="fill:#FF81AE"></path><path d="M78.48,235v33.49a3.9,3.9,0,0,1-1-.11L76.2,235.59A4.54,4.54,0,0,1,78.48,235Z" style="opacity:0.1"></path><path d="M77.67,300.85h2.24a0,0,0,0,1,0,0v15.74a0,0,0,0,1,0,0H77.67a3.84,3.84,0,0,1-3.84-3.84v-8.05A3.84,3.84,0,0,1,77.67,300.85Z" style="fill:#455a64"></path><rect x="396.8" y="209.23" width="13.43" height="66.51" transform="translate(807.04 484.96) rotate(180)" style="fill:#FF81AE"></rect><polygon points="406.65 209.23 396.8 209.23 396.8 275.74 400.56 275.74 406.65 209.23" style="opacity:0.1"></polygon><rect x="410.24" y="289.5" width="9.85" height="38.43" transform="translate(830.32 617.44) rotate(180)" style="fill:#FF81AE"></rect><polygon points="417.46 289.5 410.24 289.5 410.24 327.94 413 327.94 417.46 289.5" style="opacity:0.1"></polygon><rect x="410.24" y="209.23" width="11.28" height="66.51" transform="translate(831.76 484.96) rotate(180)" style="fill:#FF81AE"></rect><polygon points="410.24 275.74 413.35 275.74 417.22 209.23 410.24 209.23 410.24 275.74" style="opacity:0.1"></polygon><rect x="396.8" y="275.73" width="13.43" height="65.97" transform="translate(807.04 617.44) rotate(180)" style="fill:#37474f"></rect><polygon points="396.8 341.71 400.51 341.71 405.12 275.74 396.8 275.74 396.8 341.71" style="opacity:0.1"></polygon><path d="M425.84,235h.33a0,0,0,0,1,0,0v33.49a0,0,0,0,1,0,0h-.33a4.32,4.32,0,0,1-4.32-4.32V239.31a4.32,4.32,0,0,1,4.32-4.32Z" transform="translate(847.7 503.47) rotate(180)" style="fill:#FF81AE"></path><path d="M421.52,235v33.49a3.9,3.9,0,0,0,1-.11l1.31-32.78A4.54,4.54,0,0,0,421.52,235Z" style="opacity:0.1"></path><path d="M423.93,300.85h2.24a0,0,0,0,1,0,0v15.74a0,0,0,0,1,0,0h-2.24a3.84,3.84,0,0,1-3.84-3.84v-8.05A3.84,3.84,0,0,1,423.93,300.85Z" transform="translate(846.26 617.44) rotate(180)" style="fill:#455a64"></path></g></svg>
